<mxfile host="Electron" agent="Mozilla/5.0 (Macintosh; Intel Mac OS X 10_15_7) AppleWebKit/537.36 (KHTML, like Gecko) draw.io/28.0.4 Chrome/138.0.7204.97 Electron/37.2.1 Safari/537.36" version="28.0.4">
  <diagram name="Page-1" id="ban93E1x9g3eHtzpJWJd">
    <mxGraphModel dx="2061" dy="1964" grid="1" gridSize="10" guides="1" tooltips="1" connect="1" arrows="1" fold="1" page="1" pageScale="1" pageWidth="827" pageHeight="1169" math="0" shadow="0">
      <root>
        <mxCell id="0" />
        <mxCell id="1" parent="0" />
        <mxCell id="ZNJ3kwFTyo7XcxQ9_HU3-84" value="" style="rounded=0;whiteSpace=wrap;html=1;fillColor=none;" parent="1" vertex="1">
          <mxGeometry x="-20" y="-40" width="1060" height="2000" as="geometry" />
        </mxCell>
        <mxCell id="ZNJ3kwFTyo7XcxQ9_HU3-73" value="Data Sources" style="rounded=0;whiteSpace=wrap;html=1;fillColor=none;dashed=1;verticalAlign=top;" parent="1" vertex="1">
          <mxGeometry x="19" width="381" height="640" as="geometry" />
        </mxCell>
        <mxCell id="ZNJ3kwFTyo7XcxQ9_HU3-79" value="&amp;nbsp; &amp;nbsp;ETL &amp;amp; Processing" style="rounded=0;whiteSpace=wrap;html=1;fillColor=none;dashed=1;verticalAlign=top;align=left;" parent="1" vertex="1">
          <mxGeometry x="480" y="359" width="318" height="471" as="geometry" />
        </mxCell>
        <mxCell id="ZNJ3kwFTyo7XcxQ9_HU3-80" value="&amp;nbsp; ML Platform" style="rounded=0;whiteSpace=wrap;html=1;fillColor=none;dashed=1;verticalAlign=top;align=left;" parent="1" vertex="1">
          <mxGeometry x="440" y="850" width="360" height="660" as="geometry" />
        </mxCell>
        <mxCell id="ZNJ3kwFTyo7XcxQ9_HU3-83" value="&lt;span class=&quot;selected&quot;&gt;&amp;nbsp;IAM &amp;amp; Security&lt;/span&gt;" style="rounded=0;whiteSpace=wrap;html=1;strokeColor=default;fillColor=none;dashed=1;verticalAlign=top;align=left;" parent="1" vertex="1">
          <mxGeometry x="840" y="1800" width="160" height="120" as="geometry" />
        </mxCell>
        <mxCell id="ZNJ3kwFTyo7XcxQ9_HU3-82" value="&lt;span class=&quot;selected&quot;&gt;&amp;nbsp; &amp;nbsp; &amp;nbsp; &amp;nbsp;Monitoring &amp;amp; Alerting&lt;/span&gt;" style="rounded=0;whiteSpace=wrap;html=1;fillColor=none;dashed=1;verticalAlign=top;align=left;" parent="1" vertex="1">
          <mxGeometry x="550" y="1520" width="280" height="290" as="geometry" />
        </mxCell>
        <mxCell id="ZNJ3kwFTyo7XcxQ9_HU3-81" value="&lt;span class=&quot;selected&quot;&gt;&amp;nbsp; AI Orchestration &amp;amp; Remediation&lt;/span&gt;" style="rounded=0;whiteSpace=wrap;html=1;fillColor=none;dashed=1;verticalAlign=top;align=left;" parent="1" vertex="1">
          <mxGeometry x="218" y="1238" width="322" height="522" as="geometry" />
        </mxCell>
        <mxCell id="ZNJ3kwFTyo7XcxQ9_HU3-7" style="edgeStyle=orthogonalEdgeStyle;rounded=0;orthogonalLoop=1;jettySize=auto;html=1;" parent="1" source="ZNJ3kwFTyo7XcxQ9_HU3-1" target="ZNJ3kwFTyo7XcxQ9_HU3-5" edge="1">
          <mxGeometry relative="1" as="geometry" />
        </mxCell>
        <mxCell id="ZNJ3kwFTyo7XcxQ9_HU3-1" value="&lt;span class=&quot;selected&quot;&gt;AWS VPC Flow Logs&lt;/span&gt;" style="sketch=0;points=[[0,0,0],[0.25,0,0],[0.5,0,0],[0.75,0,0],[1,0,0],[0,1,0],[0.25,1,0],[0.5,1,0],[0.75,1,0],[1,1,0],[0,0.25,0],[0,0.5,0],[0,0.75,0],[1,0.25,0],[1,0.5,0],[1,0.75,0]];outlineConnect=0;fontColor=#232F3E;fillColor=#8C4FFF;strokeColor=#ffffff;dashed=0;verticalLabelPosition=bottom;verticalAlign=top;align=center;html=1;fontSize=12;fontStyle=0;aspect=fixed;shape=mxgraph.aws4.resourceIcon;resIcon=mxgraph.aws4.vpc;" parent="1" vertex="1">
          <mxGeometry x="160" y="40" width="78" height="78" as="geometry" />
        </mxCell>
        <mxCell id="ZNJ3kwFTyo7XcxQ9_HU3-2" value="&lt;span class=&quot;selected&quot;&gt;AWS Cost &amp;amp;&amp;nbsp;&lt;/span&gt;&lt;div&gt;&lt;span class=&quot;selected&quot;&gt;Usage Reports&lt;/span&gt;&lt;/div&gt;" style="sketch=0;points=[[0,0,0],[0.25,0,0],[0.5,0,0],[0.75,0,0],[1,0,0],[0,1,0],[0.25,1,0],[0.5,1,0],[0.75,1,0],[1,1,0],[0,0.25,0],[0,0.5,0],[0,0.75,0],[1,0.25,0],[1,0.5,0],[1,0.75,0]];outlineConnect=0;fontColor=#232F3E;fillColor=#7AA116;strokeColor=#ffffff;dashed=0;verticalLabelPosition=bottom;verticalAlign=top;align=center;html=1;fontSize=12;fontStyle=0;aspect=fixed;shape=mxgraph.aws4.resourceIcon;resIcon=mxgraph.aws4.cost_and_usage_report;" parent="1" vertex="1">
          <mxGeometry x="40" y="160" width="78" height="78" as="geometry" />
        </mxCell>
        <mxCell id="ZNJ3kwFTyo7XcxQ9_HU3-3" value="&lt;span class=&quot;selected&quot;&gt;S3 Access Logs&lt;/span&gt;" style="sketch=0;points=[[0,0,0],[0.25,0,0],[0.5,0,0],[0.75,0,0],[1,0,0],[0,1,0],[0.25,1,0],[0.5,1,0],[0.75,1,0],[1,1,0],[0,0.25,0],[0,0.5,0],[0,0.75,0],[1,0.25,0],[1,0.5,0],[1,0.75,0]];outlineConnect=0;fontColor=#232F3E;fillColor=#7AA116;strokeColor=#ffffff;dashed=0;verticalLabelPosition=bottom;verticalAlign=top;align=center;html=1;fontSize=12;fontStyle=0;aspect=fixed;shape=mxgraph.aws4.resourceIcon;resIcon=mxgraph.aws4.s3;" parent="1" vertex="1">
          <mxGeometry x="160" y="160" width="78" height="78" as="geometry" />
        </mxCell>
        <mxCell id="ZNJ3kwFTyo7XcxQ9_HU3-4" value="&lt;span class=&quot;selected&quot;&gt;CloudFront&lt;/span&gt;&lt;div&gt;&lt;span class=&quot;selected&quot;&gt;Access Logs&lt;/span&gt;&lt;/div&gt;" style="sketch=0;points=[[0,0,0],[0.25,0,0],[0.5,0,0],[0.75,0,0],[1,0,0],[0,1,0],[0.25,1,0],[0.5,1,0],[0.75,1,0],[1,1,0],[0,0.25,0],[0,0.5,0],[0,0.75,0],[1,0.25,0],[1,0.5,0],[1,0.75,0]];outlineConnect=0;fontColor=#232F3E;fillColor=#8C4FFF;strokeColor=#ffffff;dashed=0;verticalLabelPosition=bottom;verticalAlign=top;align=center;html=1;fontSize=12;fontStyle=0;aspect=fixed;shape=mxgraph.aws4.resourceIcon;resIcon=mxgraph.aws4.cloudfront;" parent="1" vertex="1">
          <mxGeometry x="280" y="160" width="78" height="78" as="geometry" />
        </mxCell>
        <mxCell id="ZNJ3kwFTyo7XcxQ9_HU3-5" value="&lt;span class=&quot;selected&quot;&gt;Kinesis Data Firehose&lt;/span&gt;" style="sketch=0;points=[[0,0,0],[0.25,0,0],[0.5,0,0],[0.75,0,0],[1,0,0],[0,1,0],[0.25,1,0],[0.5,1,0],[0.75,1,0],[1,1,0],[0,0.25,0],[0,0.5,0],[0,0.75,0],[1,0.25,0],[1,0.5,0],[1,0.75,0]];outlineConnect=0;fontColor=#232F3E;fillColor=#8C4FFF;strokeColor=#ffffff;dashed=0;verticalLabelPosition=bottom;verticalAlign=top;align=center;html=1;fontSize=12;fontStyle=0;aspect=fixed;shape=mxgraph.aws4.resourceIcon;resIcon=mxgraph.aws4.kinesis_data_firehose;" parent="1" vertex="1">
          <mxGeometry x="600" y="120" width="78" height="78" as="geometry" />
        </mxCell>
        <mxCell id="ZNJ3kwFTyo7XcxQ9_HU3-6" value="&lt;span class=&quot;selected&quot;&gt;S3 Raw Logs Bucket&lt;/span&gt;" style="sketch=0;points=[[0,0,0],[0.25,0,0],[0.5,0,0],[0.75,0,0],[1,0,0],[0,1,0],[0.25,1,0],[0.5,1,0],[0.75,1,0],[1,1,0],[0,0.25,0],[0,0.5,0],[0,0.75,0],[1,0.25,0],[1,0.5,0],[1,0.75,0]];outlineConnect=0;fontColor=#232F3E;fillColor=#7AA116;strokeColor=#ffffff;dashed=0;verticalLabelPosition=bottom;verticalAlign=top;align=center;html=1;fontSize=12;fontStyle=0;aspect=fixed;shape=mxgraph.aws4.resourceIcon;resIcon=mxgraph.aws4.s3;" parent="1" vertex="1">
          <mxGeometry x="600" y="238" width="78" height="78" as="geometry" />
        </mxCell>
        <mxCell id="ZNJ3kwFTyo7XcxQ9_HU3-8" style="edgeStyle=orthogonalEdgeStyle;rounded=0;orthogonalLoop=1;jettySize=auto;html=1;entryX=0;entryY=0.25;entryDx=0;entryDy=0;entryPerimeter=0;" parent="1" source="ZNJ3kwFTyo7XcxQ9_HU3-4" target="ZNJ3kwFTyo7XcxQ9_HU3-6" edge="1">
          <mxGeometry relative="1" as="geometry" />
        </mxCell>
        <mxCell id="ZNJ3kwFTyo7XcxQ9_HU3-9" style="edgeStyle=orthogonalEdgeStyle;rounded=0;orthogonalLoop=1;jettySize=auto;html=1;entryX=0;entryY=0.5;entryDx=0;entryDy=0;entryPerimeter=0;" parent="1" source="ZNJ3kwFTyo7XcxQ9_HU3-3" target="ZNJ3kwFTyo7XcxQ9_HU3-6" edge="1">
          <mxGeometry relative="1" as="geometry">
            <Array as="points">
              <mxPoint x="199" y="277" />
            </Array>
          </mxGeometry>
        </mxCell>
        <mxCell id="ZNJ3kwFTyo7XcxQ9_HU3-10" style="edgeStyle=orthogonalEdgeStyle;rounded=0;orthogonalLoop=1;jettySize=auto;html=1;entryX=0;entryY=0.75;entryDx=0;entryDy=0;entryPerimeter=0;" parent="1" source="ZNJ3kwFTyo7XcxQ9_HU3-2" target="ZNJ3kwFTyo7XcxQ9_HU3-6" edge="1">
          <mxGeometry relative="1" as="geometry">
            <Array as="points">
              <mxPoint x="79" y="297" />
              <mxPoint x="359" y="297" />
            </Array>
          </mxGeometry>
        </mxCell>
        <mxCell id="ZNJ3kwFTyo7XcxQ9_HU3-11" style="edgeStyle=orthogonalEdgeStyle;rounded=0;orthogonalLoop=1;jettySize=auto;html=1;entryX=0.5;entryY=0;entryDx=0;entryDy=0;entryPerimeter=0;" parent="1" source="ZNJ3kwFTyo7XcxQ9_HU3-5" target="ZNJ3kwFTyo7XcxQ9_HU3-6" edge="1">
          <mxGeometry relative="1" as="geometry" />
        </mxCell>
        <mxCell id="ZNJ3kwFTyo7XcxQ9_HU3-12" value="&lt;span class=&quot;selected&quot;&gt;AWS Glue ETL Jobs&lt;/span&gt;" style="sketch=0;points=[[0,0,0],[0.25,0,0],[0.5,0,0],[0.75,0,0],[1,0,0],[0,1,0],[0.25,1,0],[0.5,1,0],[0.75,1,0],[1,1,0],[0,0.25,0],[0,0.5,0],[0,0.75,0],[1,0.25,0],[1,0.5,0],[1,0.75,0]];outlineConnect=0;fontColor=#232F3E;fillColor=#8C4FFF;strokeColor=#ffffff;dashed=0;verticalLabelPosition=bottom;verticalAlign=top;align=center;html=1;fontSize=12;fontStyle=0;aspect=fixed;shape=mxgraph.aws4.resourceIcon;resIcon=mxgraph.aws4.glue_databrew;" parent="1" vertex="1">
          <mxGeometry x="520.5" y="600" width="78" height="78" as="geometry" />
        </mxCell>
        <mxCell id="ZNJ3kwFTyo7XcxQ9_HU3-20" style="edgeStyle=orthogonalEdgeStyle;rounded=0;orthogonalLoop=1;jettySize=auto;html=1;" parent="1" source="ZNJ3kwFTyo7XcxQ9_HU3-13" target="ZNJ3kwFTyo7XcxQ9_HU3-15" edge="1">
          <mxGeometry relative="1" as="geometry" />
        </mxCell>
        <mxCell id="ZNJ3kwFTyo7XcxQ9_HU3-13" value="&lt;span class=&quot;selected&quot;&gt;AWS Glue Data Catalog&lt;/span&gt;" style="sketch=0;outlineConnect=0;fontColor=#232F3E;gradientColor=none;fillColor=#8C4FFF;strokeColor=none;dashed=0;verticalLabelPosition=bottom;verticalAlign=top;align=center;html=1;fontSize=12;fontStyle=0;aspect=fixed;pointerEvents=1;shape=mxgraph.aws4.glue_data_catalog;" parent="1" vertex="1">
          <mxGeometry x="603" y="490" width="72" height="78" as="geometry" />
        </mxCell>
        <mxCell id="ZNJ3kwFTyo7XcxQ9_HU3-18" style="edgeStyle=orthogonalEdgeStyle;rounded=0;orthogonalLoop=1;jettySize=auto;html=1;" parent="1" source="ZNJ3kwFTyo7XcxQ9_HU3-14" target="ZNJ3kwFTyo7XcxQ9_HU3-13" edge="1">
          <mxGeometry relative="1" as="geometry" />
        </mxCell>
        <mxCell id="ZNJ3kwFTyo7XcxQ9_HU3-14" value="&lt;span class=&quot;selected&quot;&gt;AWS Glue Crawlers&lt;/span&gt;" style="sketch=0;points=[[0,0,0],[0.25,0,0],[0.5,0,0],[0.75,0,0],[1,0,0],[0,1,0],[0.25,1,0],[0.5,1,0],[0.75,1,0],[1,1,0],[0,0.25,0],[0,0.5,0],[0,0.75,0],[1,0.25,0],[1,0.5,0],[1,0.75,0]];outlineConnect=0;fontColor=#232F3E;fillColor=#8C4FFF;strokeColor=#ffffff;dashed=0;verticalLabelPosition=bottom;verticalAlign=top;align=center;html=1;fontSize=12;fontStyle=0;aspect=fixed;shape=mxgraph.aws4.resourceIcon;resIcon=mxgraph.aws4.glue;" parent="1" vertex="1">
          <mxGeometry x="600" y="370" width="78" height="78" as="geometry" />
        </mxCell>
        <mxCell id="ZNJ3kwFTyo7XcxQ9_HU3-15" value="&lt;span class=&quot;selected&quot;&gt;Amazon Athena&lt;/span&gt;" style="sketch=0;points=[[0,0,0],[0.25,0,0],[0.5,0,0],[0.75,0,0],[1,0,0],[0,1,0],[0.25,1,0],[0.5,1,0],[0.75,1,0],[1,1,0],[0,0.25,0],[0,0.5,0],[0,0.75,0],[1,0.25,0],[1,0.5,0],[1,0.75,0]];outlineConnect=0;fontColor=#232F3E;fillColor=#8C4FFF;strokeColor=#ffffff;dashed=0;verticalLabelPosition=bottom;verticalAlign=top;align=center;html=1;fontSize=12;fontStyle=0;aspect=fixed;shape=mxgraph.aws4.resourceIcon;resIcon=mxgraph.aws4.athena;" parent="1" vertex="1">
          <mxGeometry x="679.5" y="600" width="78" height="78" as="geometry" />
        </mxCell>
        <mxCell id="ZNJ3kwFTyo7XcxQ9_HU3-32" style="edgeStyle=orthogonalEdgeStyle;rounded=0;orthogonalLoop=1;jettySize=auto;html=1;" parent="1" source="ZNJ3kwFTyo7XcxQ9_HU3-16" target="ZNJ3kwFTyo7XcxQ9_HU3-23" edge="1">
          <mxGeometry relative="1" as="geometry" />
        </mxCell>
        <mxCell id="ZNJ3kwFTyo7XcxQ9_HU3-33" style="edgeStyle=orthogonalEdgeStyle;rounded=0;orthogonalLoop=1;jettySize=auto;html=1;" parent="1" source="ZNJ3kwFTyo7XcxQ9_HU3-16" target="ZNJ3kwFTyo7XcxQ9_HU3-29" edge="1">
          <mxGeometry relative="1" as="geometry">
            <Array as="points">
              <mxPoint x="519" y="780" />
            </Array>
          </mxGeometry>
        </mxCell>
        <mxCell id="ZNJ3kwFTyo7XcxQ9_HU3-66" style="edgeStyle=orthogonalEdgeStyle;rounded=0;orthogonalLoop=1;jettySize=auto;html=1;" parent="1" source="ZNJ3kwFTyo7XcxQ9_HU3-16" target="ZNJ3kwFTyo7XcxQ9_HU3-62" edge="1">
          <mxGeometry relative="1" as="geometry" />
        </mxCell>
        <mxCell id="ZNJ3kwFTyo7XcxQ9_HU3-16" value="&lt;span class=&quot;selected&quot;&gt;S3 Processed Data Bucket&lt;/span&gt;" style="sketch=0;points=[[0,0,0],[0.25,0,0],[0.5,0,0],[0.75,0,0],[1,0,0],[0,1,0],[0.25,1,0],[0.5,1,0],[0.75,1,0],[1,1,0],[0,0.25,0],[0,0.5,0],[0,0.75,0],[1,0.25,0],[1,0.5,0],[1,0.75,0]];outlineConnect=0;fontColor=#232F3E;fillColor=#7AA116;strokeColor=#ffffff;dashed=0;verticalLabelPosition=bottom;verticalAlign=top;align=center;html=1;fontSize=12;fontStyle=0;aspect=fixed;shape=mxgraph.aws4.resourceIcon;resIcon=mxgraph.aws4.s3;" parent="1" vertex="1">
          <mxGeometry x="601.5" y="720" width="78" height="78" as="geometry" />
        </mxCell>
        <mxCell id="ZNJ3kwFTyo7XcxQ9_HU3-17" style="edgeStyle=orthogonalEdgeStyle;rounded=0;orthogonalLoop=1;jettySize=auto;html=1;entryX=0.5;entryY=0;entryDx=0;entryDy=0;entryPerimeter=0;" parent="1" source="ZNJ3kwFTyo7XcxQ9_HU3-6" target="ZNJ3kwFTyo7XcxQ9_HU3-14" edge="1">
          <mxGeometry relative="1" as="geometry" />
        </mxCell>
        <mxCell id="ZNJ3kwFTyo7XcxQ9_HU3-19" style="edgeStyle=orthogonalEdgeStyle;rounded=0;orthogonalLoop=1;jettySize=auto;html=1;entryX=0.5;entryY=0;entryDx=0;entryDy=0;entryPerimeter=0;" parent="1" source="ZNJ3kwFTyo7XcxQ9_HU3-13" target="ZNJ3kwFTyo7XcxQ9_HU3-12" edge="1">
          <mxGeometry relative="1" as="geometry" />
        </mxCell>
        <mxCell id="ZNJ3kwFTyo7XcxQ9_HU3-22" style="edgeStyle=orthogonalEdgeStyle;rounded=0;orthogonalLoop=1;jettySize=auto;html=1;entryX=0;entryY=0.5;entryDx=0;entryDy=0;entryPerimeter=0;" parent="1" source="ZNJ3kwFTyo7XcxQ9_HU3-12" target="ZNJ3kwFTyo7XcxQ9_HU3-16" edge="1">
          <mxGeometry relative="1" as="geometry">
            <Array as="points">
              <mxPoint x="558.5" y="759" />
            </Array>
          </mxGeometry>
        </mxCell>
        <mxCell id="ZNJ3kwFTyo7XcxQ9_HU3-34" style="edgeStyle=orthogonalEdgeStyle;rounded=0;orthogonalLoop=1;jettySize=auto;html=1;" parent="1" source="ZNJ3kwFTyo7XcxQ9_HU3-23" target="ZNJ3kwFTyo7XcxQ9_HU3-29" edge="1">
          <mxGeometry relative="1" as="geometry">
            <Array as="points">
              <mxPoint x="540" y="909" />
            </Array>
          </mxGeometry>
        </mxCell>
        <mxCell id="ZNJ3kwFTyo7XcxQ9_HU3-23" value="&lt;span class=&quot;selected&quot;&gt;SageMaker&lt;/span&gt;&lt;div&gt;&lt;span class=&quot;selected&quot;&gt;Notebook Instance&lt;/span&gt;&lt;/div&gt;" style="sketch=0;outlineConnect=0;fontColor=#232F3E;gradientColor=none;fillColor=#01A88D;strokeColor=none;dashed=0;verticalLabelPosition=bottom;verticalAlign=top;align=center;html=1;fontSize=12;fontStyle=0;aspect=fixed;pointerEvents=1;shape=mxgraph.aws4.sagemaker_notebook;" parent="1" vertex="1">
          <mxGeometry x="606.5" y="870" width="68" height="78" as="geometry" />
        </mxCell>
        <mxCell id="ZNJ3kwFTyo7XcxQ9_HU3-36" style="edgeStyle=orthogonalEdgeStyle;rounded=0;orthogonalLoop=1;jettySize=auto;html=1;" parent="1" source="ZNJ3kwFTyo7XcxQ9_HU3-25" target="ZNJ3kwFTyo7XcxQ9_HU3-26" edge="1">
          <mxGeometry relative="1" as="geometry" />
        </mxCell>
        <mxCell id="ZNJ3kwFTyo7XcxQ9_HU3-25" value="&lt;span class=&quot;selected&quot;&gt;S3 Model Artifacts Bucket&lt;/span&gt;" style="sketch=0;points=[[0,0,0],[0.25,0,0],[0.5,0,0],[0.75,0,0],[1,0,0],[0,1,0],[0.25,1,0],[0.5,1,0],[0.75,1,0],[1,1,0],[0,0.25,0],[0,0.5,0],[0,0.75,0],[1,0.25,0],[1,0.5,0],[1,0.75,0]];outlineConnect=0;fontColor=#232F3E;fillColor=#7AA116;strokeColor=#ffffff;dashed=0;verticalLabelPosition=bottom;verticalAlign=top;align=center;html=1;fontSize=12;fontStyle=0;aspect=fixed;shape=mxgraph.aws4.resourceIcon;resIcon=mxgraph.aws4.s3;" parent="1" vertex="1">
          <mxGeometry x="600" y="1040" width="78" height="78" as="geometry" />
        </mxCell>
        <mxCell id="ZNJ3kwFTyo7XcxQ9_HU3-37" style="edgeStyle=orthogonalEdgeStyle;rounded=0;orthogonalLoop=1;jettySize=auto;html=1;" parent="1" source="ZNJ3kwFTyo7XcxQ9_HU3-26" target="ZNJ3kwFTyo7XcxQ9_HU3-28" edge="1">
          <mxGeometry relative="1" as="geometry" />
        </mxCell>
        <mxCell id="ZNJ3kwFTyo7XcxQ9_HU3-26" value="&lt;span class=&quot;selected&quot;&gt;SageMaker Model&lt;/span&gt;" style="sketch=0;outlineConnect=0;fontColor=#232F3E;gradientColor=none;fillColor=#01A88D;strokeColor=none;dashed=0;verticalLabelPosition=bottom;verticalAlign=top;align=center;html=1;fontSize=12;fontStyle=0;aspect=fixed;pointerEvents=1;shape=mxgraph.aws4.sagemaker_model;" parent="1" vertex="1">
          <mxGeometry x="600" y="1160" width="78" height="78" as="geometry" />
        </mxCell>
        <mxCell id="ZNJ3kwFTyo7XcxQ9_HU3-38" style="edgeStyle=orthogonalEdgeStyle;rounded=0;orthogonalLoop=1;jettySize=auto;html=1;" parent="1" source="ZNJ3kwFTyo7XcxQ9_HU3-28" target="ZNJ3kwFTyo7XcxQ9_HU3-30" edge="1">
          <mxGeometry relative="1" as="geometry" />
        </mxCell>
        <mxCell id="ZNJ3kwFTyo7XcxQ9_HU3-28" value="&lt;span class=&quot;selected&quot;&gt;SageMaker Endpoint Config&lt;/span&gt;" style="sketch=0;outlineConnect=0;fontColor=#232F3E;gradientColor=none;fillColor=#01A88D;strokeColor=none;dashed=0;verticalLabelPosition=bottom;verticalAlign=top;align=center;html=1;fontSize=12;fontStyle=0;aspect=fixed;pointerEvents=1;shape=mxgraph.aws4.sagemaker_geospatial_ml;" parent="1" vertex="1">
          <mxGeometry x="600" y="1280" width="78" height="78" as="geometry" />
        </mxCell>
        <mxCell id="ZNJ3kwFTyo7XcxQ9_HU3-29" value="&lt;span class=&quot;selected&quot;&gt;SageMaker Training Job&lt;/span&gt;" style="sketch=0;outlineConnect=0;fontColor=#232F3E;gradientColor=none;fillColor=#01A88D;strokeColor=none;dashed=0;verticalLabelPosition=bottom;verticalAlign=top;align=center;html=1;fontSize=12;fontStyle=0;aspect=fixed;pointerEvents=1;shape=mxgraph.aws4.sagemaker_train;" parent="1" vertex="1">
          <mxGeometry x="480" y="960" width="78" height="65" as="geometry" />
        </mxCell>
        <mxCell id="ZNJ3kwFTyo7XcxQ9_HU3-30" value="&lt;span class=&quot;selected&quot;&gt;SageMaker Endpoint&lt;/span&gt;" style="sketch=0;points=[[0,0,0],[0.25,0,0],[0.5,0,0],[0.75,0,0],[1,0,0],[0,1,0],[0.25,1,0],[0.5,1,0],[0.75,1,0],[1,1,0],[0,0.25,0],[0,0.5,0],[0,0.75,0],[1,0.25,0],[1,0.5,0],[1,0.75,0]];outlineConnect=0;fontColor=#232F3E;fillColor=#01A88D;strokeColor=#ffffff;dashed=0;verticalLabelPosition=bottom;verticalAlign=top;align=center;html=1;fontSize=12;fontStyle=0;aspect=fixed;shape=mxgraph.aws4.resourceIcon;resIcon=mxgraph.aws4.sagemaker;" parent="1" vertex="1">
          <mxGeometry x="600" y="1400" width="78" height="78" as="geometry" />
        </mxCell>
        <mxCell id="ZNJ3kwFTyo7XcxQ9_HU3-31" style="edgeStyle=orthogonalEdgeStyle;rounded=0;orthogonalLoop=1;jettySize=auto;html=1;" parent="1" source="ZNJ3kwFTyo7XcxQ9_HU3-16" edge="1">
          <mxGeometry relative="1" as="geometry">
            <mxPoint x="640" y="570" as="targetPoint" />
          </mxGeometry>
        </mxCell>
        <mxCell id="ZNJ3kwFTyo7XcxQ9_HU3-35" style="edgeStyle=orthogonalEdgeStyle;rounded=0;orthogonalLoop=1;jettySize=auto;html=1;entryX=0;entryY=0.5;entryDx=0;entryDy=0;entryPerimeter=0;" parent="1" source="ZNJ3kwFTyo7XcxQ9_HU3-29" target="ZNJ3kwFTyo7XcxQ9_HU3-25" edge="1">
          <mxGeometry relative="1" as="geometry">
            <Array as="points">
              <mxPoint x="519" y="1079" />
            </Array>
          </mxGeometry>
        </mxCell>
        <mxCell id="ZNJ3kwFTyo7XcxQ9_HU3-39" value="&lt;span class=&quot;selected&quot;&gt;Amazon EventBridge (Scheduler)&lt;/span&gt;" style="sketch=0;points=[[0,0,0],[0.25,0,0],[0.5,0,0],[0.75,0,0],[1,0,0],[0,1,0],[0.25,1,0],[0.5,1,0],[0.75,1,0],[1,1,0],[0,0.25,0],[0,0.5,0],[0,0.75,0],[1,0.25,0],[1,0.5,0],[1,0.75,0]];outlineConnect=0;fontColor=#232F3E;fillColor=#E7157B;strokeColor=#ffffff;dashed=0;verticalLabelPosition=bottom;verticalAlign=top;align=center;html=1;fontSize=12;fontStyle=0;aspect=fixed;shape=mxgraph.aws4.resourceIcon;resIcon=mxgraph.aws4.eventbridge;" parent="1" vertex="1">
          <mxGeometry x="322" y="1280" width="78" height="78" as="geometry" />
        </mxCell>
        <mxCell id="ZNJ3kwFTyo7XcxQ9_HU3-47" style="edgeStyle=orthogonalEdgeStyle;rounded=0;orthogonalLoop=1;jettySize=auto;html=1;" parent="1" source="ZNJ3kwFTyo7XcxQ9_HU3-40" target="ZNJ3kwFTyo7XcxQ9_HU3-30" edge="1">
          <mxGeometry relative="1" as="geometry">
            <Array as="points">
              <mxPoint x="520" y="1450" />
              <mxPoint x="520" y="1450" />
            </Array>
          </mxGeometry>
        </mxCell>
        <mxCell id="ZNJ3kwFTyo7XcxQ9_HU3-40" value="&lt;span class=&quot;selected&quot;&gt;Lambda: Anomaly&lt;/span&gt;&lt;div&gt;&lt;span class=&quot;selected&quot;&gt;Detector Trigger&lt;/span&gt;&lt;/div&gt;" style="sketch=0;points=[[0,0,0],[0.25,0,0],[0.5,0,0],[0.75,0,0],[1,0,0],[0,1,0],[0.25,1,0],[0.5,1,0],[0.75,1,0],[1,1,0],[0,0.25,0],[0,0.5,0],[0,0.75,0],[1,0.25,0],[1,0.5,0],[1,0.75,0]];outlineConnect=0;fontColor=#232F3E;fillColor=#ED7100;strokeColor=#ffffff;dashed=0;verticalLabelPosition=bottom;verticalAlign=top;align=center;html=1;fontSize=12;fontStyle=0;aspect=fixed;shape=mxgraph.aws4.resourceIcon;resIcon=mxgraph.aws4.lambda;" parent="1" vertex="1">
          <mxGeometry x="322" y="1400" width="78" height="78" as="geometry" />
        </mxCell>
        <mxCell id="ZNJ3kwFTyo7XcxQ9_HU3-41" value="&lt;span class=&quot;selected&quot;&gt;AWS Step Functions&lt;/span&gt;&lt;div&gt;&lt;span class=&quot;selected&quot;&gt;(Remediation Workflow)&lt;/span&gt;&lt;/div&gt;" style="sketch=0;points=[[0,0,0],[0.25,0,0],[0.5,0,0],[0.75,0,0],[1,0,0],[0,1,0],[0.25,1,0],[0.5,1,0],[0.75,1,0],[1,1,0],[0,0.25,0],[0,0.5,0],[0,0.75,0],[1,0.25,0],[1,0.5,0],[1,0.75,0]];outlineConnect=0;fontColor=#232F3E;fillColor=#E7157B;strokeColor=#ffffff;dashed=0;verticalLabelPosition=bottom;verticalAlign=top;align=center;html=1;fontSize=12;fontStyle=0;aspect=fixed;shape=mxgraph.aws4.resourceIcon;resIcon=mxgraph.aws4.step_functions;" parent="1" vertex="1">
          <mxGeometry x="322" y="1520" width="78" height="78" as="geometry" />
        </mxCell>
        <mxCell id="ZNJ3kwFTyo7XcxQ9_HU3-52" style="edgeStyle=orthogonalEdgeStyle;rounded=0;orthogonalLoop=1;jettySize=auto;html=1;exitX=1;exitY=0.5;exitDx=0;exitDy=0;exitPerimeter=0;" parent="1" source="ZNJ3kwFTyo7XcxQ9_HU3-42" target="ZNJ3kwFTyo7XcxQ9_HU3-41" edge="1">
          <mxGeometry relative="1" as="geometry" />
        </mxCell>
        <mxCell id="ZNJ3kwFTyo7XcxQ9_HU3-57" style="edgeStyle=orthogonalEdgeStyle;rounded=0;orthogonalLoop=1;jettySize=auto;html=1;" parent="1" source="ZNJ3kwFTyo7XcxQ9_HU3-42" target="ZNJ3kwFTyo7XcxQ9_HU3-54" edge="1">
          <mxGeometry relative="1" as="geometry">
            <Array as="points">
              <mxPoint x="79" y="1700" />
            </Array>
          </mxGeometry>
        </mxCell>
        <mxCell id="ZNJ3kwFTyo7XcxQ9_HU3-76" value="(Contextual Data)" style="edgeLabel;html=1;align=center;verticalAlign=middle;resizable=0;points=[];" parent="ZNJ3kwFTyo7XcxQ9_HU3-57" vertex="1" connectable="0">
          <mxGeometry x="0.3879" y="-1" relative="1" as="geometry">
            <mxPoint x="-1" y="-249" as="offset" />
          </mxGeometry>
        </mxCell>
        <mxCell id="ZNJ3kwFTyo7XcxQ9_HU3-58" style="edgeStyle=orthogonalEdgeStyle;rounded=0;orthogonalLoop=1;jettySize=auto;html=1;" parent="1" source="ZNJ3kwFTyo7XcxQ9_HU3-42" target="ZNJ3kwFTyo7XcxQ9_HU3-55" edge="1">
          <mxGeometry relative="1" as="geometry">
            <Array as="points">
              <mxPoint x="199" y="1679" />
            </Array>
          </mxGeometry>
        </mxCell>
        <mxCell id="ZNJ3kwFTyo7XcxQ9_HU3-75" value="(Contextual Data)" style="edgeLabel;html=1;align=center;verticalAlign=middle;resizable=0;points=[];" parent="ZNJ3kwFTyo7XcxQ9_HU3-58" vertex="1" connectable="0">
          <mxGeometry x="0.2429" y="-3" relative="1" as="geometry">
            <mxPoint x="-3" y="-343" as="offset" />
          </mxGeometry>
        </mxCell>
        <mxCell id="ZNJ3kwFTyo7XcxQ9_HU3-42" value="&lt;span class=&quot;selected&quot;&gt;Lambda: Bedrock Analyzer&lt;/span&gt;" style="sketch=0;points=[[0,0,0],[0.25,0,0],[0.5,0,0],[0.75,0,0],[1,0,0],[0,1,0],[0.25,1,0],[0.5,1,0],[0.75,1,0],[1,1,0],[0,0.25,0],[0,0.5,0],[0,0.75,0],[1,0.25,0],[1,0.5,0],[1,0.75,0]];outlineConnect=0;fontColor=#232F3E;fillColor=#ED7100;strokeColor=#ffffff;dashed=0;verticalLabelPosition=bottom;verticalAlign=top;align=center;html=1;fontSize=12;fontStyle=0;aspect=fixed;shape=mxgraph.aws4.resourceIcon;resIcon=mxgraph.aws4.lambda;" parent="1" vertex="1">
          <mxGeometry x="260" y="1640" width="78" height="78" as="geometry" />
        </mxCell>
        <mxCell id="ZNJ3kwFTyo7XcxQ9_HU3-51" style="edgeStyle=orthogonalEdgeStyle;rounded=0;orthogonalLoop=1;jettySize=auto;html=1;" parent="1" source="ZNJ3kwFTyo7XcxQ9_HU3-43" target="ZNJ3kwFTyo7XcxQ9_HU3-44" edge="1">
          <mxGeometry relative="1" as="geometry" />
        </mxCell>
        <mxCell id="ZNJ3kwFTyo7XcxQ9_HU3-43" value="&lt;span class=&quot;selected&quot;&gt;Lambda: Remediation&lt;/span&gt;&lt;div&gt;&lt;span class=&quot;selected&quot;&gt;Orchestrator&lt;/span&gt;&lt;/div&gt;" style="sketch=0;points=[[0,0,0],[0.25,0,0],[0.5,0,0],[0.75,0,0],[1,0,0],[0,1,0],[0.25,1,0],[0.5,1,0],[0.75,1,0],[1,1,0],[0,0.25,0],[0,0.5,0],[0,0.75,0],[1,0.25,0],[1,0.5,0],[1,0.75,0]];outlineConnect=0;fontColor=#232F3E;fillColor=#ED7100;strokeColor=#ffffff;dashed=0;verticalLabelPosition=bottom;verticalAlign=top;align=center;html=1;fontSize=12;fontStyle=0;aspect=fixed;shape=mxgraph.aws4.resourceIcon;resIcon=mxgraph.aws4.lambda;" parent="1" vertex="1">
          <mxGeometry x="442.5" y="1640" width="78" height="78" as="geometry" />
        </mxCell>
        <mxCell id="ZNJ3kwFTyo7XcxQ9_HU3-44" value="&lt;span class=&quot;selected&quot;&gt;AWS Resources&lt;/span&gt;" style="outlineConnect=0;dashed=0;verticalLabelPosition=bottom;verticalAlign=top;align=center;html=1;shape=mxgraph.aws3.resources;fillColor=#759C3E;gradientColor=none;" parent="1" vertex="1">
          <mxGeometry x="447.75" y="1782.25" width="67.5" height="79.5" as="geometry" />
        </mxCell>
        <mxCell id="ZNJ3kwFTyo7XcxQ9_HU3-45" style="edgeStyle=orthogonalEdgeStyle;rounded=0;orthogonalLoop=1;jettySize=auto;html=1;entryX=0;entryY=0.5;entryDx=0;entryDy=0;entryPerimeter=0;exitX=0;exitY=0.5;exitDx=0;exitDy=0;exitPerimeter=0;" parent="1" source="ZNJ3kwFTyo7XcxQ9_HU3-39" target="ZNJ3kwFTyo7XcxQ9_HU3-40" edge="1">
          <mxGeometry relative="1" as="geometry">
            <Array as="points">
              <mxPoint x="270" y="1319" />
              <mxPoint x="270" y="1439" />
            </Array>
          </mxGeometry>
        </mxCell>
        <mxCell id="ZNJ3kwFTyo7XcxQ9_HU3-46" style="edgeStyle=orthogonalEdgeStyle;rounded=0;orthogonalLoop=1;jettySize=auto;html=1;entryX=1;entryY=0.25;entryDx=0;entryDy=0;entryPerimeter=0;" parent="1" source="ZNJ3kwFTyo7XcxQ9_HU3-30" target="ZNJ3kwFTyo7XcxQ9_HU3-40" edge="1">
          <mxGeometry relative="1" as="geometry">
            <Array as="points">
              <mxPoint x="519" y="1420" />
            </Array>
          </mxGeometry>
        </mxCell>
        <mxCell id="ZNJ3kwFTyo7XcxQ9_HU3-48" style="edgeStyle=orthogonalEdgeStyle;rounded=0;orthogonalLoop=1;jettySize=auto;html=1;entryX=0.5;entryY=0;entryDx=0;entryDy=0;entryPerimeter=0;" parent="1" source="ZNJ3kwFTyo7XcxQ9_HU3-40" target="ZNJ3kwFTyo7XcxQ9_HU3-41" edge="1">
          <mxGeometry relative="1" as="geometry" />
        </mxCell>
        <mxCell id="ZNJ3kwFTyo7XcxQ9_HU3-49" style="edgeStyle=orthogonalEdgeStyle;rounded=0;orthogonalLoop=1;jettySize=auto;html=1;entryX=0.5;entryY=0;entryDx=0;entryDy=0;entryPerimeter=0;exitX=0;exitY=0.5;exitDx=0;exitDy=0;exitPerimeter=0;" parent="1" source="ZNJ3kwFTyo7XcxQ9_HU3-41" target="ZNJ3kwFTyo7XcxQ9_HU3-42" edge="1">
          <mxGeometry relative="1" as="geometry" />
        </mxCell>
        <mxCell id="ZNJ3kwFTyo7XcxQ9_HU3-50" style="edgeStyle=orthogonalEdgeStyle;rounded=0;orthogonalLoop=1;jettySize=auto;html=1;entryX=0.5;entryY=0;entryDx=0;entryDy=0;entryPerimeter=0;" parent="1" source="ZNJ3kwFTyo7XcxQ9_HU3-41" target="ZNJ3kwFTyo7XcxQ9_HU3-43" edge="1">
          <mxGeometry relative="1" as="geometry" />
        </mxCell>
        <mxCell id="ZNJ3kwFTyo7XcxQ9_HU3-54" value="&lt;span class=&quot;selected&quot;&gt;AWS Config&lt;/span&gt;" style="sketch=0;points=[[0,0,0],[0.25,0,0],[0.5,0,0],[0.75,0,0],[1,0,0],[0,1,0],[0.25,1,0],[0.5,1,0],[0.75,1,0],[1,1,0],[0,0.25,0],[0,0.5,0],[0,0.75,0],[1,0.25,0],[1,0.5,0],[1,0.75,0]];points=[[0,0,0],[0.25,0,0],[0.5,0,0],[0.75,0,0],[1,0,0],[0,1,0],[0.25,1,0],[0.5,1,0],[0.75,1,0],[1,1,0],[0,0.25,0],[0,0.5,0],[0,0.75,0],[1,0.25,0],[1,0.5,0],[1,0.75,0]];outlineConnect=0;fontColor=#232F3E;fillColor=#E7157B;strokeColor=#ffffff;dashed=0;verticalLabelPosition=bottom;verticalAlign=top;align=center;html=1;fontSize=12;fontStyle=0;aspect=fixed;shape=mxgraph.aws4.resourceIcon;resIcon=mxgraph.aws4.config;" parent="1" vertex="1">
          <mxGeometry x="40" y="480" width="78" height="78" as="geometry" />
        </mxCell>
        <mxCell id="ZNJ3kwFTyo7XcxQ9_HU3-55" value="&lt;span class=&quot;selected&quot;&gt;AWS CloudTrail&lt;/span&gt;" style="sketch=0;points=[[0,0,0],[0.25,0,0],[0.5,0,0],[0.75,0,0],[1,0,0],[0,1,0],[0.25,1,0],[0.5,1,0],[0.75,1,0],[1,1,0],[0,0.25,0],[0,0.5,0],[0,0.75,0],[1,0.25,0],[1,0.5,0],[1,0.75,0]];points=[[0,0,0],[0.25,0,0],[0.5,0,0],[0.75,0,0],[1,0,0],[0,1,0],[0.25,1,0],[0.5,1,0],[0.75,1,0],[1,1,0],[0,0.25,0],[0,0.5,0],[0,0.75,0],[1,0.25,0],[1,0.5,0],[1,0.75,0]];outlineConnect=0;fontColor=#232F3E;fillColor=#E7157B;strokeColor=#ffffff;dashed=0;verticalLabelPosition=bottom;verticalAlign=top;align=center;html=1;fontSize=12;fontStyle=0;aspect=fixed;shape=mxgraph.aws4.resourceIcon;resIcon=mxgraph.aws4.cloudtrail;" parent="1" vertex="1">
          <mxGeometry x="160" y="480" width="78" height="78" as="geometry" />
        </mxCell>
        <mxCell id="ZNJ3kwFTyo7XcxQ9_HU3-56" value="&lt;span class=&quot;selected&quot;&gt;AWS Cost Explorer API&lt;/span&gt;" style="sketch=0;points=[[0,0,0],[0.25,0,0],[0.5,0,0],[0.75,0,0],[1,0,0],[0,1,0],[0.25,1,0],[0.5,1,0],[0.75,1,0],[1,1,0],[0,0.25,0],[0,0.5,0],[0,0.75,0],[1,0.25,0],[1,0.5,0],[1,0.75,0]];outlineConnect=0;fontColor=#232F3E;fillColor=#7AA116;strokeColor=#ffffff;dashed=0;verticalLabelPosition=bottom;verticalAlign=top;align=center;html=1;fontSize=12;fontStyle=0;aspect=fixed;shape=mxgraph.aws4.resourceIcon;resIcon=mxgraph.aws4.cost_explorer;" parent="1" vertex="1">
          <mxGeometry x="280" y="480" width="78" height="78" as="geometry" />
        </mxCell>
        <mxCell id="ZNJ3kwFTyo7XcxQ9_HU3-59" style="edgeStyle=orthogonalEdgeStyle;rounded=0;orthogonalLoop=1;jettySize=auto;html=1;entryX=0;entryY=0.5;entryDx=0;entryDy=0;entryPerimeter=0;" parent="1" source="ZNJ3kwFTyo7XcxQ9_HU3-42" target="ZNJ3kwFTyo7XcxQ9_HU3-56" edge="1">
          <mxGeometry relative="1" as="geometry">
            <Array as="points">
              <mxPoint x="250" y="1660" />
              <mxPoint x="250" y="520" />
            </Array>
          </mxGeometry>
        </mxCell>
        <mxCell id="ZNJ3kwFTyo7XcxQ9_HU3-74" value="(Contextual Data)" style="edgeLabel;html=1;align=center;verticalAlign=middle;resizable=0;points=[];" parent="ZNJ3kwFTyo7XcxQ9_HU3-59" vertex="1" connectable="0">
          <mxGeometry x="0.2033" y="-1" relative="1" as="geometry">
            <mxPoint x="-1" y="-248" as="offset" />
          </mxGeometry>
        </mxCell>
        <mxCell id="ZNJ3kwFTyo7XcxQ9_HU3-64" style="edgeStyle=orthogonalEdgeStyle;rounded=0;orthogonalLoop=1;jettySize=auto;html=1;" parent="1" source="ZNJ3kwFTyo7XcxQ9_HU3-60" target="ZNJ3kwFTyo7XcxQ9_HU3-61" edge="1">
          <mxGeometry relative="1" as="geometry" />
        </mxCell>
        <mxCell id="ZNJ3kwFTyo7XcxQ9_HU3-60" value="&lt;span class=&quot;selected&quot;&gt;CloudWatch Alarms&amp;nbsp;&lt;/span&gt;&lt;div&gt;&lt;span class=&quot;selected&quot;&gt;(High-Level Cost)&lt;/span&gt;&lt;/div&gt;" style="sketch=0;outlineConnect=0;fontColor=#232F3E;gradientColor=none;fillColor=#E7157B;strokeColor=none;dashed=0;verticalLabelPosition=bottom;verticalAlign=top;align=center;html=1;fontSize=12;fontStyle=0;aspect=fixed;pointerEvents=1;shape=mxgraph.aws4.alarm;" parent="1" vertex="1">
          <mxGeometry x="600" y="1560" width="78" height="78" as="geometry" />
        </mxCell>
        <mxCell id="ZNJ3kwFTyo7XcxQ9_HU3-61" value="&lt;span class=&quot;selected&quot;&gt;SNS Anomaly&lt;/span&gt;&lt;div&gt;&lt;span class=&quot;selected&quot;&gt;Alerts Topic&lt;/span&gt;&lt;/div&gt;" style="sketch=0;points=[[0,0,0],[0.25,0,0],[0.5,0,0],[0.75,0,0],[1,0,0],[0,1,0],[0.25,1,0],[0.5,1,0],[0.75,1,0],[1,1,0],[0,0.25,0],[0,0.5,0],[0,0.75,0],[1,0.25,0],[1,0.5,0],[1,0.75,0]];outlineConnect=0;fontColor=#232F3E;fillColor=#E7157B;strokeColor=#ffffff;dashed=0;verticalLabelPosition=bottom;verticalAlign=top;align=center;html=1;fontSize=12;fontStyle=0;aspect=fixed;shape=mxgraph.aws4.resourceIcon;resIcon=mxgraph.aws4.sns;" parent="1" vertex="1">
          <mxGeometry x="600" y="1682" width="78" height="78" as="geometry" />
        </mxCell>
        <mxCell id="ZNJ3kwFTyo7XcxQ9_HU3-62" value="&lt;span class=&quot;selected&quot;&gt;Amazon&amp;nbsp;&lt;/span&gt;&lt;div&gt;&lt;span class=&quot;selected&quot;&gt;QuickSight&lt;/span&gt;&lt;/div&gt;" style="sketch=0;points=[[0,0,0],[0.25,0,0],[0.5,0,0],[0.75,0,0],[1,0,0],[0,1,0],[0.25,1,0],[0.5,1,0],[0.75,1,0],[1,1,0],[0,0.25,0],[0,0.5,0],[0,0.75,0],[1,0.25,0],[1,0.5,0],[1,0.75,0]];outlineConnect=0;fontColor=#232F3E;fillColor=#8C4FFF;strokeColor=#ffffff;dashed=0;verticalLabelPosition=bottom;verticalAlign=top;align=center;html=1;fontSize=12;fontStyle=0;aspect=fixed;shape=mxgraph.aws4.resourceIcon;resIcon=mxgraph.aws4.quicksight;" parent="1" vertex="1">
          <mxGeometry x="720" y="1562" width="78" height="78" as="geometry" />
        </mxCell>
        <mxCell id="ZNJ3kwFTyo7XcxQ9_HU3-63" value="&lt;span class=&quot;selected&quot;&gt;CloudWatch Logs&lt;/span&gt;" style="sketch=0;points=[[0,0,0],[0.25,0,0],[0.5,0,0],[0.75,0,0],[1,0,0],[0,1,0],[0.25,1,0],[0.5,1,0],[0.75,1,0],[1,1,0],[0,0.25,0],[0,0.5,0],[0,0.75,0],[1,0.25,0],[1,0.5,0],[1,0.75,0]];points=[[0,0,0],[0.25,0,0],[0.5,0,0],[0.75,0,0],[1,0,0],[0,1,0],[0.25,1,0],[0.5,1,0],[0.75,1,0],[1,1,0],[0,0.25,0],[0,0.5,0],[0,0.75,0],[1,0.25,0],[1,0.5,0],[1,0.75,0]];outlineConnect=0;fontColor=#232F3E;fillColor=#E7157B;strokeColor=#ffffff;dashed=0;verticalLabelPosition=bottom;verticalAlign=top;align=center;html=1;fontSize=12;fontStyle=0;aspect=fixed;shape=mxgraph.aws4.resourceIcon;resIcon=mxgraph.aws4.cloudwatch_2;" parent="1" vertex="1">
          <mxGeometry x="720" y="1682" width="78" height="78" as="geometry" />
        </mxCell>
        <mxCell id="ZNJ3kwFTyo7XcxQ9_HU3-65" style="edgeStyle=orthogonalEdgeStyle;rounded=0;orthogonalLoop=1;jettySize=auto;html=1;entryX=0.75;entryY=0;entryDx=0;entryDy=0;entryPerimeter=0;" parent="1" source="ZNJ3kwFTyo7XcxQ9_HU3-13" target="ZNJ3kwFTyo7XcxQ9_HU3-62" edge="1">
          <mxGeometry relative="1" as="geometry">
            <Array as="points">
              <mxPoint x="779" y="510" />
            </Array>
          </mxGeometry>
        </mxCell>
        <mxCell id="ZNJ3kwFTyo7XcxQ9_HU3-67" style="edgeStyle=orthogonalEdgeStyle;rounded=0;orthogonalLoop=1;jettySize=auto;html=1;entryX=0;entryY=0.25;entryDx=0;entryDy=0;entryPerimeter=0;" parent="1" source="ZNJ3kwFTyo7XcxQ9_HU3-41" target="ZNJ3kwFTyo7XcxQ9_HU3-61" edge="1">
          <mxGeometry relative="1" as="geometry">
            <Array as="points">
              <mxPoint x="560" y="1540" />
              <mxPoint x="560" y="1702" />
            </Array>
          </mxGeometry>
        </mxCell>
        <mxCell id="ZNJ3kwFTyo7XcxQ9_HU3-68" style="edgeStyle=orthogonalEdgeStyle;rounded=0;orthogonalLoop=1;jettySize=auto;html=1;entryX=0.5;entryY=1;entryDx=0;entryDy=0;entryPerimeter=0;" parent="1" source="ZNJ3kwFTyo7XcxQ9_HU3-42" target="ZNJ3kwFTyo7XcxQ9_HU3-61" edge="1">
          <mxGeometry relative="1" as="geometry">
            <Array as="points">
              <mxPoint x="300" y="1900" />
              <mxPoint x="639" y="1900" />
            </Array>
          </mxGeometry>
        </mxCell>
        <mxCell id="ZNJ3kwFTyo7XcxQ9_HU3-69" value="IAM Roles &amp;amp; Policies" style="sketch=0;outlineConnect=0;fontColor=#232F3E;gradientColor=none;fillColor=#DD344C;strokeColor=none;dashed=0;verticalLabelPosition=bottom;verticalAlign=top;align=center;html=1;fontSize=12;fontStyle=0;aspect=fixed;pointerEvents=1;shape=mxgraph.aws4.role;" parent="1" vertex="1">
          <mxGeometry x="900" y="1838" width="78" height="44" as="geometry" />
        </mxCell>
        <mxCell id="ZNJ3kwFTyo7XcxQ9_HU3-71" style="edgeStyle=orthogonalEdgeStyle;rounded=0;orthogonalLoop=1;jettySize=auto;html=1;" parent="1" source="ZNJ3kwFTyo7XcxQ9_HU3-70" target="ZNJ3kwFTyo7XcxQ9_HU3-69" edge="1">
          <mxGeometry relative="1" as="geometry" />
        </mxCell>
        <mxCell id="ZNJ3kwFTyo7XcxQ9_HU3-72" style="edgeStyle=orthogonalEdgeStyle;rounded=0;orthogonalLoop=1;jettySize=auto;html=1;" parent="1" source="ZNJ3kwFTyo7XcxQ9_HU3-70" target="ZNJ3kwFTyo7XcxQ9_HU3-63" edge="1">
          <mxGeometry relative="1" as="geometry" />
        </mxCell>
        <mxCell id="ZNJ3kwFTyo7XcxQ9_HU3-77" value="(Logging)" style="edgeLabel;html=1;align=center;verticalAlign=middle;resizable=0;points=[];" parent="ZNJ3kwFTyo7XcxQ9_HU3-72" vertex="1" connectable="0">
          <mxGeometry x="0.122" y="1" relative="1" as="geometry">
            <mxPoint x="6" y="-1" as="offset" />
          </mxGeometry>
        </mxCell>
        <mxCell id="ZNJ3kwFTyo7XcxQ9_HU3-70" value="All Services" style="sketch=0;points=[[0,0,0],[0.25,0,0],[0.5,0,0],[0.75,0,0],[1,0,0],[0,1,0],[0.25,1,0],[0.5,1,0],[0.75,1,0],[1,1,0],[0,0.25,0],[0,0.5,0],[0,0.75,0],[1,0.25,0],[1,0.5,0],[1,0.75,0]];outlineConnect=0;fontColor=#232F3E;fillColor=#C925D1;strokeColor=#ffffff;dashed=0;verticalLabelPosition=bottom;verticalAlign=top;align=center;html=1;fontSize=12;fontStyle=0;aspect=fixed;shape=mxgraph.aws4.resourceIcon;resIcon=mxgraph.aws4.managed_services;" parent="1" vertex="1">
          <mxGeometry x="900" y="1682" width="78" height="78" as="geometry" />
        </mxCell>
        <mxCell id="ZNJ3kwFTyo7XcxQ9_HU3-78" value="Data Ingestion" style="rounded=0;whiteSpace=wrap;html=1;fillColor=none;dashed=1;verticalAlign=top;" parent="1" vertex="1">
          <mxGeometry x="520.5" width="279.5" height="340" as="geometry" />
        </mxCell>
      </root>
    </mxGraphModel>
  </diagram>
</mxfile>
